<?xml version="1.0" standalone="no"?>
<!DOCTYPE svg PUBLIC "-//W3C//DTD SVG 20010904//EN"
 "http://www.w3.org/TR/2001/REC-SVG-20010904/DTD/svg10.dtd">
<svg version="1.0" xmlns="http://www.w3.org/2000/svg"
 width="900.000000pt" height="700.000000pt" viewBox="0 0 900.000000 700.000000"
 preserveAspectRatio="xMidYMid meet">

<g transform="translate(0.000000,700.000000) scale(0.100000,-0.100000)"
fill="#000000" stroke="none">
<path d="M4315 6564 c-470 -41 -811 -133 -1185 -320 -306 -154 -540 -323 -791
-573 -190 -190 -261 -276 -401 -486 -268 -402 -443 -894 -493 -1386 -17 -170
-12 -511 9 -678 110 -839 541 -1578 1218 -2086 392 -294 889 -500 1374 -570
350 -50 721 -41 1054 25 843 168 1585 690 2027 1425 222 368 359 765 419 1210
24 180 24 570 0 750 -96 711 -402 1327 -902 1815 -168 164 -263 241 -457 371
-238 158 -518 291 -788 372 -187 57 -319 84 -594 122 -49 6 -435 14 -490 9z
m-1659 -1810 c82 -31 183 -69 224 -84 41 -15 388 -146 770 -290 382 -144 739
-277 793 -297 l97 -35 0 -237 0 -237 -307 -119 c-170 -65 -369 -142 -443 -171
-74 -28 -317 -122 -540 -209 -607 -235 -737 -285 -744 -285 -3 0 -6 109 -6
243 l0 242 158 59 c86 32 324 120 527 196 204 76 451 168 549 205 99 36 184
69 190 72 6 4 -1 10 -14 14 -14 4 -207 72 -430 152 -223 79 -537 191 -697 248
l-293 104 0 243 c0 133 4 242 9 242 4 0 75 -25 157 -56z m3864 -2359 l0 -195
-990 0 -990 0 0 195 0 195 990 0 990 0 0 -195z"/>
</g>
</svg>
